<?xml version="1.0" encoding="UTF-8"?><svg id="_图层_1" xmlns="http://www.w3.org/2000/svg" viewBox="0 0 2160 2160"><defs><style>.cls-1{fill:#232637;}</style></defs><path class="cls-1" d="M1138.99,1098.87l194.5,346.62c14.71,26.21,52.35,26.44,67.37.41l200.06-346.52c6.92-11.99,6.92-26.77,0-38.76l-199.4-345.36c-15-25.98-52.55-25.81-67.31.31l-195.17,345.27c-6.67,11.8-6.69,26.22-.06,38.04Z"/><path class="cls-1" d="M1267.61,1483.1l-215.68-384.36c-6.63-11.82-6.61-26.25.06-38.04l216.89-383.69c14.61-25.84-4.06-57.84-33.74-57.84h-177.58c-13.83,0-26.61,7.37-33.55,19.34l-.11.19.27.15-155.3,268.27c-6.95,12.01-6.95,26.83,0,38.84l155.06,267.85c6.95,12,6.95,26.81.01,38.82h0s.23.13.23.13l-133.08,229.89c-14.96,25.84,3.69,58.18,33.55,58.18h309.18c29.63,0,48.3-31.89,33.8-57.73Z"/><path class="cls-1" d="M936.29,1213.84l-155.28-268.23c-6.96-12.01-6.95-26.83,0-38.84l132.84-229.41c14.96-25.84-3.68-58.19-33.55-58.19h-43.99c-13.85,0-26.65,7.39-33.57,19.38l-243.68,422.07c-6.92,11.99-6.92,26.77,0,38.76l199.24,345.1c14.92,25.84,52.2,25.84,67.13.01l110.86-191.84c6.94-12.01,6.93-26.81-.01-38.82Z"/></svg>